# xmcd CD database file
#
# Track frame offsets:
#	150
#	10305
#	22635
#	33135
#	45225
#	56880
#	67630
#	78710
#	90632
#	99847
#	112115
#	123385
#	136882
#	156717
#	179977
#	200357
#	215334
#	229834
#	247349
#	263002
#	276869
#	293174
#	309572
#	327124
#	343782
#
# Disc length: 4781 seconds
#
# Revision: 0
# Processed by: cddbd v1.5.2PL0 Copyright (c) Steve Scherf et al.
# Submitted via: CDex 1.51
#
DISCID=6812ab19
DTITLE=Oscar Peterson - The Complete Harold Arlen Song Book
DYEAR=2017
DGENRE=Jazz
TTITLE0=Happiness is a thing called Joe
TTITLE1=Stormy weather
TTITLE2=Over the rainbow
TTITLE3=The man that got away
TTITLE4=I'll wind
TTITLE5=Let's fall in love
TTITLE6=As long as i live
TTITLE7=Come rain or come shine
TTITLE8=Ac-cent-tchu-ate the positive
TTITLE9=Between the devil and the deep Blue sea
TTITLE10=I've got the world on a string
TTITLE11=That old black magic
TTITLE12=Aslong as i live
TTITLE13=I gotta right to sing the blues
TTITLE14=Come rain or come shine
TTITLE15=Ac-cent-tchu-ate the positive
TTITLE16=Between the devil and the deep blue sea
TTITLE17=I've got the world on a string
TTITLE18=It's only a paper moon
TTITLE19=The old black magic
TTITLE20=Let's fall in love
TTITLE21=Stormy weather
TTITLE22=Blues in the night
TTITLE23=Over the rainbow
TTITLE24=One for my baby
EXTD=YEAR: 2017
EXTT0=
EXTT1=
EXTT2=
EXTT3=
EXTT4=
EXTT5=
EXTT6=
EXTT7=
EXTT8=
EXTT9=
EXTT10=
EXTT11=
EXTT12=
EXTT13=
EXTT14=
EXTT15=
EXTT16=
EXTT17=
EXTT18=
EXTT19=
EXTT20=
EXTT21=
EXTT22=
EXTT23=
EXTT24=
PLAYORDER=
